<?xml version="1.0" encoding="iso-8859-1"?>
<!-- Generator: Adobe Illustrator 19.0.0, SVG Export Plug-In . SVG Version: 6.00 Build 0)  -->
<svg version="1.1" id="Layer_1" xmlns="http://www.w3.org/2000/svg" xmlns:xlink="http://www.w3.org/1999/xlink" x="0px" y="0px"
	 viewBox="0 0 512 512" style="enable-background:new 0 0 512 512;" xml:space="preserve">
<g>
	<path style="fill:#00D7DF;" d="M41.253,151.36c6.99,0,12.466-5.068,12.466-11.538V49.123c0-6.394-5.243-11.402-11.935-11.402
		c-5.888,0-8.833,3.951-9.801,5.249c-0.04,0.055-0.081,0.11-0.119,0.165L21.327,58.042c-2.047,2.225-3.865,5.783-3.865,9.197
		c0,6.505,5.059,11.812,11.321,11.933v60.65C28.782,146.4,34.142,151.36,41.253,151.36z"/>
	<path style="fill:#00D7DF;" d="M25.557,254.952c-11.929,8.591-25.449,18.33-25.449,33.39v12.934
		c0,6.904,6.313,11.541,12.211,11.541h47.479c6.215,0,11.271-5.475,11.271-12.205c0-6.659-5.057-12.076-11.271-12.076H25.323v-0.197
		c0-3.626,8.312-9.491,14.991-14.204c13.286-9.376,29.821-21.043,29.821-41.277c0-19.202-14.882-33.68-34.614-33.68
		c-18.894,0-33.143,12.988-33.143,30.211c0,9.994,6.505,13.542,12.075,13.542c7.973,0,12.737-5.935,12.737-11.673
		c0-3.568,0.915-7.663,8.063-7.663c9.654,0,9.931,8.554,9.931,9.529C45.186,240.813,35.208,248.001,25.557,254.952z"/>
	<path style="fill:#00D7DF;" d="M35.326,450.064c-9.822,0-10.585-5.058-10.585-6.608c0-5.863-3.886-11.777-12.57-11.777
		C4.55,431.678,0,436.428,0,444.384c0,14.493,12.424,29.896,35.453,29.896c22.368,0,35.724-13.451,35.724-35.983v-2.516
		c0-9.239-2.955-16.897-8.501-22.404c3.799-5.498,5.856-12.828,5.856-21.382c0-19.927-11.765-31.355-32.282-31.355
		c-26.897,0-34.006,19.21-34.006,29.368c0,11.825,8.791,13.102,12.571,13.102c7.361,0,12.305-4.945,12.305-12.306
		c0-2.83,1.008-6.081,8.859-6.081c5.643,0,7.941,0.812,7.941,8.99c0,7.989-1.715,8.859-8.469,8.859
		c-6.487,0-11.378,5.118-11.378,11.908c0,6.715,4.95,11.778,11.514,11.778c8.919,0,10.713,3.643,10.713,9.521v2.516
		C46.302,448.188,42.444,450.064,35.326,450.064z"/>
</g>
<g>
	<path style="fill:#424EDE;" d="M164.864,86.468h322.917C501.156,86.468,512,75.625,512,62.25s-10.844-24.219-24.219-24.219H164.864
		c-13.375,0-24.219,10.844-24.219,24.219S151.489,86.468,164.864,86.468z"/>
	<path style="fill:#424EDE;" d="M164.864,183.344h322.917c13.375,0,24.219-10.844,24.219-24.219s-10.844-24.219-24.219-24.219
		H164.864c-13.375,0-24.219,10.844-24.219,24.219S151.489,183.344,164.864,183.344z"/>
	<path style="fill:#424EDE;" d="M164.864,280.219h322.917C501.156,280.219,512,269.375,512,256
		c0-13.375-10.844-24.219-24.219-24.219H164.864c-13.375,0-24.219,10.844-24.219,24.219
		C140.645,269.375,151.489,280.219,164.864,280.219z"/>
	<path style="fill:#424EDE;" d="M164.864,473.969h322.917c13.375,0,24.219-10.844,24.219-24.219
		c0-13.375-10.844-24.219-24.219-24.219H164.864c-13.375,0-24.219,10.844-24.219,24.219
		C140.645,463.126,151.489,473.969,164.864,473.969z"/>
	<path style="fill:#424EDE;" d="M164.864,377.094h322.917c13.375,0,24.219-10.844,24.219-24.219
		c0-13.375-10.844-24.219-24.219-24.219H164.864c-13.375,0-24.219,10.844-24.219,24.219
		C140.645,366.25,151.489,377.094,164.864,377.094z"/>
</g>
<g>
</g>
<g>
</g>
<g>
</g>
<g>
</g>
<g>
</g>
<g>
</g>
<g>
</g>
<g>
</g>
<g>
</g>
<g>
</g>
<g>
</g>
<g>
</g>
<g>
</g>
<g>
</g>
<g>
</g>
</svg>
